<svg width="265" height="265" viewBox="0 0 265 265" fill="none" xmlns="http://www.w3.org/2000/svg">
<path d="M132.5 265C205.678 265 265 205.678 265 132.5C265 59.3223 205.678 0 132.5 0C59.3223 0 0 59.3223 0 132.5C0 205.678 59.3223 265 132.5 265Z" fill="#6DA544"/>
<path d="M132.5 51.8479L241.956 132.5L132.5 213.152L23.0435 132.5L132.5 51.8479Z" fill="#FFDA44"/>
<path d="M132.5 178.587C157.953 178.587 178.587 157.953 178.587 132.5C178.587 107.047 157.953 86.4133 132.5 86.4133C107.047 86.4133 86.4131 107.047 86.4131 132.5C86.4131 157.953 107.047 178.587 132.5 178.587Z" fill="#F0F0F0"/>
<path d="M109.456 129.62C101.442 129.62 93.708 130.839 86.4277 133.1C86.7502 158.275 107.248 178.587 132.5 178.587C148.114 178.587 161.905 170.815 170.241 158.936C155.978 141.081 134.032 129.62 109.456 129.62Z" fill="#0052B4"/>
<path d="M177.732 141.33C178.287 138.471 178.587 135.521 178.587 132.5C178.587 107.047 157.953 86.4133 132.5 86.4133C113.508 86.4133 97.2046 97.9041 90.1489 114.31C96.3857 113.018 102.843 112.337 109.457 112.337C136.225 112.337 160.44 123.464 177.732 141.33Z" fill="#0052B4"/>
</svg>
