<svg width="265" height="265" viewBox="0 0 265 265" fill="none" xmlns="http://www.w3.org/2000/svg">
<mask id="mask0_134_151" style="mask-type:alpha" maskUnits="userSpaceOnUse" x="0" y="0" width="265" height="265">
<circle cx="132.5" cy="132.5" r="132.5" fill="#E6EBF4"/>
</mask>
<g mask="url(#mask0_134_151)">
<path d="M272.84 -3.13623H-24.3047V27.2774H272.84V-3.13623Z" fill="#DC4437"/>
<path d="M272.84 57.9197H-24.3047V88.3333H272.84V57.9197Z" fill="#DC4437"/>
<path d="M272.84 179.803H-24.3047V210.216H272.84V179.803Z" fill="#DC4437"/>
<path d="M272.84 240.859H-24.3047V271.272H272.84V240.859Z" fill="#DC4437"/>
<path d="M272.84 118.747H-24.3047V149.16H272.84V118.747Z" fill="#DC4437"/>
<path d="M272.84 27.2776H-24.3047V57.6912H272.84V27.2776Z" fill="white"/>
<path d="M272.84 88.3335H-24.3047V118.747H272.84V88.3335Z" fill="white"/>
<path d="M272.84 210.216H-24.3047V240.63H272.84V210.216Z" fill="white"/>
<path d="M272.84 149.389H-24.3047V179.803H272.84V149.389Z" fill="white"/>
<path d="M135.696 -3.13623H-24.3047V149.389H135.696V-3.13623Z" fill="#2A66B7"/>
<path d="M6.55265 6.01099L11.8098 17.216L23.6956 19.0454L15.0099 27.9636L17.067 40.312L6.55265 34.3665L-3.96171 40.312L-1.90455 27.9636L-10.5903 19.0454L1.29547 17.216L6.55265 6.01099Z" fill="white"/>
<path d="M53.4101 6.01099L58.6673 17.216L70.5531 19.0454L62.0958 27.9636L63.9244 40.312L53.4101 34.3665L42.8957 40.312L44.7243 27.9636L36.2671 19.0454L48.1529 17.216L53.4101 6.01099Z" fill="white"/>
<path d="M100.267 6.01099L105.525 17.216L117.41 19.0454L108.725 27.9636L110.782 40.312L100.267 34.3665L89.7531 40.312L91.8103 27.9636L83.1245 19.0454L95.0103 17.216L100.267 6.01099Z" fill="white"/>
<path d="M30.5531 51.7454L35.8103 62.9504L47.6961 64.7798L39.2389 73.698L41.0675 86.0464L30.5531 80.1009L20.0388 86.0464L21.8674 73.698L13.4102 64.7798L25.296 62.9504L30.5531 51.7454Z" fill="white"/>
<path d="M77.4106 51.7454L82.6677 62.9504L94.5535 64.7798L85.8678 73.698L87.9249 86.0464L77.4106 80.1009L66.8962 86.0464L68.9534 73.698L60.2676 64.7798L72.1534 62.9504L77.4106 51.7454Z" fill="white"/>
<path d="M6.55265 100.224L11.8098 111.429L23.6956 113.259L15.0099 121.948L17.067 134.525L6.55265 128.58L-3.96171 134.525L-1.90455 121.948L-10.5903 113.259L1.29547 111.429L6.55265 100.224Z" fill="white"/>
<path d="M53.4101 100.224L58.6673 111.429L70.5531 113.259L62.0958 121.948L63.9244 134.525L53.4101 128.58L42.8957 134.525L44.7243 121.948L36.2671 113.259L48.1529 111.429L53.4101 100.224Z" fill="white"/>
<path d="M100.267 100.224L105.525 111.429L117.41 113.259L108.725 121.948L110.782 134.525L100.267 128.58L89.7531 134.525L91.8103 121.948L83.1245 113.259L95.0103 111.429L100.267 100.224Z" fill="white"/>
</g>
</svg>
